<svg xmlns="http://www.w3.org/2000/svg" viewBox="0 0 577.33 496.67"><defs><style>.cls-1{fill:#fff;}.cls-2{fill:#cfcfce;}.cls-3{fill:#dcdbdb;}</style></defs><title>logo</title><g id="Calque_1" data-name="Calque 1"><polygon class="cls-1" points="253 272.33 254.67 496.67 502 390.67 505.33 298 329.33 377.33 253 272.33"/><polygon class="cls-2" points="88.67 138.67 254.33 267.67 323.33 242.67 327.75 66 88.67 138.67"/><polygon class="cls-3" points="332 68 326.67 241.33 506 172 332 68"/><polygon class="cls-1" points="46 69.33 81.33 136 325.25 63.25 271.33 0.67 46 69.33"/><polygon class="cls-1" points="334 64 406 0 577.33 94 514 170 334 64"/></g><g id="Calque_2" data-name="Calque 2"><polygon class="cls-1" points="85.33 139.33 0 192 148 322 248.67 268 85.33 139.33"/><polygon class="cls-1" points="257.33 271.33 331.33 371.33 557.33 269.33 507.33 176.67 257.33 271.33"/><polygon class="cls-1" points="91.33 279.33 93.33 364 251.33 495.33 250 272 147.33 329.33 91.33 279.33"/></g></svg>